<svg width="615" height="889" viewBox="0 0 615 889" fill="none" xmlns="http://www.w3.org/2000/svg">
<circle cx="333.92" cy="137.252" r="136.897" transform="rotate(-56.2956 333.92 137.252)" fill="#C4C4C4"/>
<circle cx="333.92" cy="137.252" r="136.897" transform="rotate(-56.2956 333.92 137.252)" fill="url(#paint0_linear_813_162)"/>
<circle r="27.6003" transform="matrix(0.554908 -0.831912 -0.831912 -0.554908 114.059 90.6432)" fill="#C4C4C4"/>
<circle r="27.6003" transform="matrix(0.554908 -0.831912 -0.831912 -0.554908 114.059 90.6432)" fill="url(#paint1_linear_813_162)"/>
<circle cx="406.334" cy="172.908" r="113.016" transform="rotate(-101.296 406.334 172.908)" fill="#C4C4C4"/>
<circle cx="406.334" cy="172.908" r="113.016" transform="rotate(-101.296 406.334 172.908)" fill="url(#paint2_linear_813_162)"/>
<circle cx="406.334" cy="172.908" r="113.016" transform="rotate(-101.296 406.334 172.908)" fill="url(#paint3_linear_813_162)"/>
<circle cx="501.466" cy="268.041" r="113.016" transform="rotate(-101.296 501.466 268.041)" fill="#C4C4C4"/>
<circle cx="501.466" cy="268.041" r="113.016" transform="rotate(-101.296 501.466 268.041)" fill="url(#paint4_linear_813_162)"/>
<circle cx="501.466" cy="268.041" r="113.016" transform="rotate(-101.296 501.466 268.041)" fill="url(#paint5_linear_813_162)"/>
<circle cx="289.807" cy="289.434" r="113.016" transform="rotate(-101.296 289.807 289.434)" fill="#C4C4C4"/>
<circle cx="289.807" cy="289.434" r="113.016" transform="rotate(-101.296 289.807 289.434)" fill="url(#paint6_linear_813_162)"/>
<circle cx="384.938" cy="384.568" r="113.016" transform="rotate(-101.296 384.938 384.568)" fill="#C4C4C4"/>
<circle cx="384.938" cy="384.568" r="113.016" transform="rotate(-101.296 384.938 384.568)" fill="url(#paint7_linear_813_162)"/>
<path fill-rule="evenodd" clip-rule="evenodd" d="M71.0156 888.673C71.0156 888.673 69.4978 877.112 66.1585 870.114C62.5157 863.421 40.6588 867.68 40.6588 867.68C40.6588 867.68 36.4088 871.331 35.4981 888.977L71.0156 888.673Z" fill="#233862"/>
<path fill-rule="evenodd" clip-rule="evenodd" d="M145.695 888.673C140.534 885.326 143.57 861.9 143.57 861.9C143.57 861.9 167.552 842.733 170.891 857.337C174.23 872.244 193.659 878.633 204.891 880.458C212.48 881.675 214.908 885.935 215.516 888.673H145.695Z" fill="#233862"/>
<path fill-rule="evenodd" clip-rule="evenodd" d="M95.9079 717.388C96.8186 722.865 97.4258 727.428 97.7293 730.471C99.8543 774.28 134.461 874.069 140.533 876.199C149.943 879.85 165.122 872.244 173.014 869.81C176.05 868.593 178.479 865.246 177.568 861.9C160.568 783.407 154.497 670.536 152.068 603.301C150.854 569.835 145.086 546.409 145.086 546.409C145.086 546.409 61.3011 523.895 60.694 552.493C60.3904 577.441 88.6223 676.013 95.9079 717.388Z" fill="#213F7A"/>
<path fill-rule="evenodd" clip-rule="evenodd" d="M95.9079 717.388C96.8186 722.865 97.4258 727.428 97.7293 730.471C99.8543 774.28 134.461 874.069 140.533 876.199C149.943 879.85 165.122 872.244 173.014 869.81C176.05 868.593 178.479 865.246 177.568 861.9C160.568 783.407 154.497 670.536 152.068 603.301C150.854 569.835 145.086 546.409 145.086 546.409C145.086 546.409 61.3011 523.895 60.694 552.493C60.3904 577.441 88.6223 676.013 95.9079 717.388Z" fill="url(#paint8_linear_813_162)"/>
<path opacity="0.3" fill-rule="evenodd" clip-rule="evenodd" d="M95.9121 717.388L152.072 603.301C150.858 569.835 145.09 546.409 145.09 546.409C145.09 546.409 61.3053 523.895 60.6981 552.493C60.3946 577.441 88.6264 676.013 95.9121 717.388Z" fill="black"/>
<path fill-rule="evenodd" clip-rule="evenodd" d="M114.73 552.493L70.4095 874.982C70.4095 874.982 50.6775 879.545 35.4991 875.895C35.4991 875.895 22.7492 704.306 23.6599 662.931C24.8742 621.555 14.2493 551.885 26.0885 544.279C37.9276 536.673 114.73 552.493 114.73 552.493Z" fill="#213F7A"/>
<path fill-rule="evenodd" clip-rule="evenodd" d="M114.73 552.493L70.4095 874.982C70.4095 874.982 50.6775 879.545 35.4991 875.895C35.4991 875.895 22.7492 704.306 23.6599 662.931C24.8742 621.555 14.2493 551.885 26.0885 544.279C37.9276 536.673 114.73 552.493 114.73 552.493Z" fill="url(#paint9_linear_813_162)"/>
<path fill-rule="evenodd" clip-rule="evenodd" d="M17.5881 547.017C17.2846 550.059 19.106 552.493 21.8381 553.406C28.213 555.231 35.1951 556.448 48.8557 559.491C61.9091 561.924 79.2125 564.358 100.766 564.663C134.766 564.663 147.515 553.102 147.515 553.102C149.033 553.102 146.908 545.8 144.783 512.03C144.176 500.469 143.569 485.866 142.962 467.612C142.658 451.183 142.355 431.408 142.051 407.982C142.051 379.992 98.9445 349.873 98.0338 349.873C98.0338 353.828 91.6588 361.434 81.9447 362.042C70.1055 362.651 55.8378 356.87 55.8378 350.177C55.8378 350.177 34.8915 383.947 27.6059 419.847C23.6595 437.797 25.1773 437.493 17.5881 547.017Z" fill="#B0D0FF"/>
<path fill-rule="evenodd" clip-rule="evenodd" d="M17.5881 547.017C17.2846 550.059 19.106 552.493 21.8381 553.406C28.213 555.231 35.1951 556.448 48.8557 559.491C61.9091 561.924 79.2125 564.358 100.766 564.663C134.766 564.663 147.515 553.102 147.515 553.102C149.033 553.102 146.908 545.8 144.783 512.03C144.176 500.469 143.569 485.866 142.962 467.612C142.658 451.183 142.355 431.408 142.051 407.982C142.051 379.992 98.9445 349.873 98.0338 349.873C98.0338 353.828 91.6588 361.434 81.9447 362.042C70.1055 362.651 55.8378 356.87 55.8378 350.177C55.8378 350.177 34.8915 383.947 27.6059 419.847C23.6595 437.797 25.1773 437.493 17.5881 547.017Z" fill="url(#paint10_linear_813_162)"/>
<path fill-rule="evenodd" clip-rule="evenodd" d="M98.0345 349.874C98.0345 349.874 138.409 349.569 148.123 362.956C157.838 376.646 179.087 449.967 167.855 474.61C156.927 498.948 135.981 464.266 124.445 449.358C112.909 434.451 98.0345 349.874 98.0345 349.874Z" fill="#B0D0FF"/>
<path fill-rule="evenodd" clip-rule="evenodd" d="M98.0345 349.874C98.0345 349.874 138.409 349.569 148.123 362.956C157.838 376.646 179.087 449.967 167.855 474.61C156.927 498.948 135.981 464.266 124.445 449.358C112.909 434.451 98.0345 349.874 98.0345 349.874Z" fill="url(#paint11_linear_813_162)"/>
<path fill-rule="evenodd" clip-rule="evenodd" d="M98.339 343.484V347.743C98.339 347.743 99.5533 360.825 83.4641 362.651C67.375 364.78 55.5358 360.217 55.8394 350.177C57.3572 342.571 58.8751 334.357 58.8751 327.968C58.8751 325.534 58.8751 323.1 58.268 320.058L89.232 319.449L98.6426 320.97L98.339 343.484Z" fill="#FFB27D"/>
<path fill-rule="evenodd" clip-rule="evenodd" d="M98.339 343.484V347.743C98.339 347.743 99.5533 360.825 83.4641 362.651C67.375 364.78 55.5358 360.217 55.8394 350.177C57.3572 342.571 58.8751 334.357 58.8751 327.968C58.8751 325.534 58.8751 323.1 58.268 320.058L89.232 319.449L98.6426 320.97L98.339 343.484Z" fill="url(#paint12_linear_813_162)"/>
<path opacity="0.2" fill-rule="evenodd" clip-rule="evenodd" d="M98.6426 320.97L98.339 343.484C94.9998 345.005 91.3569 346.222 87.107 346.222C72.8392 346.222 63.7322 335.574 58.8751 327.968C58.8751 325.534 58.8751 323.1 58.268 320.058L89.232 319.449L98.6426 320.97Z" fill="black"/>
<path fill-rule="evenodd" clip-rule="evenodd" d="M55.8403 315.191C59.4831 334.662 84.6793 334.054 95.3042 332.837C98.3399 332.532 100.465 331.924 100.465 331.924C103.804 331.011 105.626 325.535 106.536 318.538C108.358 304.543 106.233 283.855 103.804 278.683C100.161 270.773 93.4828 261.95 68.2866 268.339C43.0904 274.424 51.2868 290.244 55.8403 315.191Z" fill="#FFB27D"/>
<path fill-rule="evenodd" clip-rule="evenodd" d="M55.8403 315.191C59.4831 334.662 84.6793 334.054 95.3042 332.837C98.3399 332.532 100.465 331.924 100.465 331.924C103.804 331.011 105.626 325.535 106.536 318.538C108.358 304.543 106.233 283.855 103.804 278.683C100.161 270.773 93.4828 261.95 68.2866 268.339C43.0904 274.424 51.2868 290.244 55.8403 315.191Z" fill="url(#paint13_linear_813_162)"/>
<path opacity="0.3" fill-rule="evenodd" clip-rule="evenodd" d="M139.319 404.332C139.319 404.332 154.801 439.015 154.498 449.359C154.498 449.359 146.605 449.054 139.319 451.184C127.176 454.835 139.319 404.332 139.319 404.332Z" fill="black"/>
<path fill-rule="evenodd" clip-rule="evenodd" d="M111.392 260.124C111.392 260.124 100.463 259.212 87.4098 253.431C76.785 248.868 63.1244 254.04 58.8744 256.169C58.8744 255.561 59.178 254.648 60.0887 253.735C60.0887 253.735 57.9637 254.952 57.6601 257.082C57.6601 257.082 57.3566 257.082 57.3566 257.386C57.3566 257.386 55.2316 256.778 53.7138 257.386C53.7138 257.386 54.928 257.386 55.2316 257.995C55.2316 257.995 55.2316 257.995 55.2316 258.299C38.8389 266.209 37.3211 292.373 42.4817 298.458C48.8567 305.759 58.5708 322.492 58.5708 322.492C58.5708 322.492 59.4816 318.537 58.2673 311.844C57.053 305.455 62.8208 305.455 69.8029 302.717C76.785 299.675 71.0172 291.46 77.0885 286.593C83.1599 281.421 105.624 284.463 105.32 280.812C113.82 277.77 111.392 261.037 111.392 260.124Z" fill="#233862"/>
<path fill-rule="evenodd" clip-rule="evenodd" d="M111.392 260.124C111.392 260.124 100.463 259.212 87.4098 253.431C76.785 248.868 63.1244 254.04 58.8744 256.169C58.8744 255.561 59.178 254.648 60.0887 253.735C60.0887 253.735 57.9637 254.952 57.6601 257.082C57.6601 257.082 57.3566 257.082 57.3566 257.386C57.3566 257.386 55.2316 256.778 53.7138 257.386C53.7138 257.386 54.928 257.386 55.2316 257.995C55.2316 257.995 55.2316 257.995 55.2316 258.299C38.8389 266.209 37.3211 292.373 42.4817 298.458C48.8567 305.759 58.5708 322.492 58.5708 322.492C58.5708 322.492 59.4816 318.537 58.2673 311.844C57.053 305.455 62.8208 305.455 69.8029 302.717C76.785 299.675 71.0172 291.46 77.0885 286.593C83.1599 281.421 105.624 284.463 105.32 280.812C113.82 277.77 111.392 261.037 111.392 260.124Z" fill="url(#paint14_linear_813_162)"/>
<path fill-rule="evenodd" clip-rule="evenodd" d="M50.6789 469.133C57.3574 495.602 128.696 509.292 144.785 512.031C144.178 500.47 143.571 485.866 142.964 467.612L50.6789 469.133Z" fill="#4B5062"/>
<path fill-rule="evenodd" clip-rule="evenodd" d="M66.4629 477.652C65.8558 477.652 50.6774 475.522 47.9453 474.001C45.2131 472.784 32.7668 455.139 40.9632 450.575C49.1595 446.012 70.7129 463.961 70.7129 463.961L66.4629 477.652Z" fill="#191F53"/>
<path fill-rule="evenodd" clip-rule="evenodd" d="M158.447 482.824C158.447 482.824 99.8578 486.17 60.6975 477.652C60.6975 477.652 59.7868 466.395 71.9295 461.223C71.9295 461.223 133.25 448.141 148.125 451.792C162.697 455.442 158.447 482.824 158.447 482.824Z" fill="#494E66"/>
<path fill-rule="evenodd" clip-rule="evenodd" d="M23.9598 436.885C36.1026 451.488 52.1917 463.657 69.4951 466.395C69.7987 466.091 74.9593 458.181 74.0486 446.62C73.4415 441.448 71.6201 435.363 67.6737 428.67C66.1559 426.845 65.2452 424.411 64.0309 421.673C54.6203 397.334 55.8345 350.178 55.8345 350.178C55.8345 350.178 15.4599 354.437 2.71004 372.691C-5.18274 383.644 4.83502 413.763 23.9598 436.885Z" fill="#B0D0FF"/>
<path fill-rule="evenodd" clip-rule="evenodd" d="M23.9598 436.885C36.1026 451.488 52.1917 463.657 69.4951 466.395C69.7987 466.091 74.9593 458.181 74.0486 446.62C73.4415 441.448 71.6201 435.363 67.6737 428.67C66.1559 426.845 65.2452 424.411 64.0309 421.673C54.6203 397.334 55.8345 350.178 55.8345 350.178C55.8345 350.178 15.4599 354.437 2.71004 372.691C-5.18274 383.644 4.83502 413.763 23.9598 436.885Z" fill="url(#paint15_linear_813_162)"/>
<path opacity="0.3" fill-rule="evenodd" clip-rule="evenodd" d="M95.3012 332.836C98.3368 332.532 100.462 331.923 100.462 331.923C103.801 331.011 105.622 325.534 106.533 318.537C100.158 320.058 97.1226 325.23 95.9083 327.36C95.3012 328.273 95.3012 330.402 95.3012 332.836Z" fill="black"/>
<path fill-rule="evenodd" clip-rule="evenodd" d="M111.694 343.788C111.694 343.788 125.658 320.666 114.73 319.449C104.105 318.537 99.5516 325.838 98.0337 328.577C96.5159 331.315 98.3373 343.484 98.3373 343.484L111.694 343.788Z" fill="#FFB27D"/>
<path fill-rule="evenodd" clip-rule="evenodd" d="M111.694 343.788C111.694 343.788 125.658 320.666 114.73 319.449C104.105 318.537 99.5516 325.838 98.0337 328.577C96.5159 331.315 98.3373 343.484 98.3373 343.484L111.694 343.788Z" fill="url(#paint16_linear_813_162)"/>
<path fill-rule="evenodd" clip-rule="evenodd" d="M58.2666 446.012C58.5701 449.054 59.4808 451.488 60.6951 453.922C64.0344 461.528 69.4986 466.395 69.4986 466.395C105.927 449.967 113.516 393.379 114.73 362.043C115.034 349.569 114.73 341.355 114.73 341.355C98.3376 335.879 93.4805 345.31 93.4805 345.31C93.4805 345.31 74.0521 391.554 64.0344 421.673C60.3915 433.234 57.6594 442.665 58.2666 446.012Z" fill="#B0D0FF"/>
<path fill-rule="evenodd" clip-rule="evenodd" d="M58.2666 446.012C58.5701 449.054 59.4808 451.488 60.6951 453.922C64.0344 461.528 69.4986 466.395 69.4986 466.395C105.927 449.967 113.516 393.379 114.73 362.043C115.034 349.569 114.73 341.355 114.73 341.355C98.3376 335.879 93.4805 345.31 93.4805 345.31C93.4805 345.31 74.0521 391.554 64.0344 421.673C60.3915 433.234 57.6594 442.665 58.2666 446.012Z" fill="url(#paint17_linear_813_162)"/>
<path opacity="0.2" fill-rule="evenodd" clip-rule="evenodd" d="M23.9635 436.885C36.1062 451.488 52.1953 463.657 69.4988 466.395C105.927 449.967 113.516 393.379 114.73 362.043C114.73 362.043 97.4271 424.715 74.0523 446.62C69.8023 450.575 65.2488 453.313 60.6953 453.922C60.6953 453.922 30.9456 445.707 24.8742 437.797C24.5706 437.189 24.267 436.885 23.9635 436.885Z" fill="black"/>
<defs>
<linearGradient id="paint0_linear_813_162" x1="222.723" y1="225.478" x2="440.477" y2="267.874" gradientUnits="userSpaceOnUse">
<stop offset="0.0001" stop-color="#141947"/>
<stop offset="0.258333" stop-color="#252C70"/>
<stop offset="0.552951" stop-color="#484D69"/>
<stop offset="0.773212" stop-color="#4B4F63"/>
<stop offset="1" stop-color="#5C5C40"/>
</linearGradient>
<linearGradient id="paint1_linear_813_162" x1="5.18143" y1="45.3879" x2="49.0837" y2="53.9356" gradientUnits="userSpaceOnUse">
<stop offset="0.0001" stop-color="#141947"/>
<stop offset="0.258333" stop-color="#252C70"/>
<stop offset="0.552951" stop-color="#484D69"/>
<stop offset="0.773212" stop-color="#4B4F63"/>
<stop offset="1" stop-color="#5C5C40"/>
</linearGradient>
<linearGradient id="paint2_linear_813_162" x1="293.318" y1="234.124" x2="494.302" y2="280.744" gradientUnits="userSpaceOnUse">
<stop offset="0.0001" stop-color="#141947"/>
<stop offset="0.258333" stop-color="#252C70"/>
<stop offset="0.552951" stop-color="#484D69"/>
<stop offset="0.773212" stop-color="#4B4F63"/>
<stop offset="1" stop-color="#5C5C40"/>
</linearGradient>
<linearGradient id="paint3_linear_813_162" x1="316.859" y1="245.301" x2="494.302" y2="280.744" gradientUnits="userSpaceOnUse">
<stop offset="0.0001" stop-color="#141947"/>
<stop offset="0.258333" stop-color="#252C70"/>
<stop offset="0.552951" stop-color="#484D69"/>
<stop offset="0.773212" stop-color="#4B4F63"/>
<stop offset="1" stop-color="#5C5C40"/>
</linearGradient>
<linearGradient id="paint4_linear_813_162" x1="388.451" y1="329.256" x2="589.435" y2="375.877" gradientUnits="userSpaceOnUse">
<stop offset="0.0001" stop-color="#141947"/>
<stop offset="0.258333" stop-color="#252C70"/>
<stop offset="0.552951" stop-color="#484D69"/>
<stop offset="0.773212" stop-color="#4B4F63"/>
<stop offset="1" stop-color="#5C5C40"/>
</linearGradient>
<linearGradient id="paint5_linear_813_162" x1="411.991" y1="340.434" x2="589.435" y2="375.877" gradientUnits="userSpaceOnUse">
<stop offset="0.0001" stop-color="#141947"/>
<stop offset="0.258333" stop-color="#252C70"/>
<stop offset="0.552951" stop-color="#484D69"/>
<stop offset="0.773212" stop-color="#4B4F63"/>
<stop offset="1" stop-color="#5C5C40"/>
</linearGradient>
<linearGradient id="paint6_linear_813_162" x1="200.332" y1="361.827" x2="377.776" y2="397.27" gradientUnits="userSpaceOnUse">
<stop offset="0.0001" stop-color="#141947"/>
<stop offset="0.258333" stop-color="#252C70"/>
<stop offset="0.552951" stop-color="#484D69"/>
<stop offset="0.773212" stop-color="#4B4F63"/>
<stop offset="1" stop-color="#5C5C40"/>
</linearGradient>
<linearGradient id="paint7_linear_813_162" x1="306.103" y1="459.087" x2="472.906" y2="492.404" gradientUnits="userSpaceOnUse">
<stop offset="0.0001" stop-color="#141947"/>
<stop offset="0.258333" stop-color="#252C70"/>
<stop offset="0.552951" stop-color="#484D69"/>
<stop offset="0.773212" stop-color="#4B4F63"/>
<stop offset="1" stop-color="#5C5C40"/>
</linearGradient>
<linearGradient id="paint8_linear_813_162" x1="177.762" y1="799.442" x2="68.7623" y2="808.168" gradientUnits="userSpaceOnUse">
<stop offset="0.0001" stop-color="#141947"/>
<stop offset="0.258333" stop-color="#252C70"/>
<stop offset="0.552951" stop-color="#484D69"/>
<stop offset="0.773212" stop-color="#4B4F63"/>
<stop offset="1" stop-color="#5C5C40"/>
</linearGradient>
<linearGradient id="paint9_linear_813_162" x1="114.73" y1="800.515" x2="26.7476" y2="806.258" gradientUnits="userSpaceOnUse">
<stop offset="0.0001" stop-color="#141947"/>
<stop offset="0.258333" stop-color="#252C70"/>
<stop offset="0.552951" stop-color="#484D69"/>
<stop offset="0.773212" stop-color="#4B4F63"/>
<stop offset="1" stop-color="#5C5C40"/>
</linearGradient>
<linearGradient id="paint10_linear_813_162" x1="148.029" y1="515.439" x2="28.1513" y2="532.33" gradientUnits="userSpaceOnUse">
<stop offset="0.0001" stop-color="#141947"/>
<stop offset="0.258333" stop-color="#252C70"/>
<stop offset="0.552951" stop-color="#484D69"/>
<stop offset="0.773212" stop-color="#4B4F63"/>
<stop offset="1" stop-color="#5C5C40"/>
</linearGradient>
<linearGradient id="paint11_linear_813_162" x1="171.049" y1="452.514" x2="103.722" y2="461.077" gradientUnits="userSpaceOnUse">
<stop offset="0.0001" stop-color="#141947"/>
<stop offset="0.258333" stop-color="#252C70"/>
<stop offset="0.552951" stop-color="#484D69"/>
<stop offset="0.773212" stop-color="#4B4F63"/>
<stop offset="1" stop-color="#5C5C40"/>
</linearGradient>
<linearGradient id="paint12_linear_813_162" x1="98.6426" y1="353.146" x2="60.4976" y2="361.81" gradientUnits="userSpaceOnUse">
<stop offset="0.0001" stop-color="#141947"/>
<stop offset="0.258333" stop-color="#252C70"/>
<stop offset="0.552951" stop-color="#484D69"/>
<stop offset="0.773212" stop-color="#4B4F63"/>
<stop offset="1" stop-color="#5C5C40"/>
</linearGradient>
<linearGradient id="paint13_linear_813_162" x1="107.221" y1="317.944" x2="56.3255" y2="327.847" gradientUnits="userSpaceOnUse">
<stop offset="0.0001" stop-color="#141947"/>
<stop offset="0.258333" stop-color="#252C70"/>
<stop offset="0.552951" stop-color="#484D69"/>
<stop offset="0.773212" stop-color="#4B4F63"/>
<stop offset="1" stop-color="#5C5C40"/>
</linearGradient>
<linearGradient id="paint14_linear_813_162" x1="111.713" y1="306.247" x2="47.9018" y2="321.253" gradientUnits="userSpaceOnUse">
<stop offset="0.0001" stop-color="#141947"/>
<stop offset="0.258333" stop-color="#252C70"/>
<stop offset="0.552951" stop-color="#484D69"/>
<stop offset="0.773212" stop-color="#4B4F63"/>
<stop offset="1" stop-color="#5C5C40"/>
</linearGradient>
<linearGradient id="paint15_linear_813_162" x1="74.1562" y1="439.761" x2="6.1581" y2="449.826" gradientUnits="userSpaceOnUse">
<stop offset="0.0001" stop-color="#141947"/>
<stop offset="0.258333" stop-color="#252C70"/>
<stop offset="0.552951" stop-color="#484D69"/>
<stop offset="0.773212" stop-color="#4B4F63"/>
<stop offset="1" stop-color="#5C5C40"/>
</linearGradient>
<linearGradient id="paint16_linear_813_162" x1="118.908" y1="338.193" x2="99.5867" y2="342.135" gradientUnits="userSpaceOnUse">
<stop offset="0.0001" stop-color="#141947"/>
<stop offset="0.258333" stop-color="#252C70"/>
<stop offset="0.552951" stop-color="#484D69"/>
<stop offset="0.773212" stop-color="#4B4F63"/>
<stop offset="1" stop-color="#5C5C40"/>
</linearGradient>
<linearGradient id="paint17_linear_813_162" x1="114.865" y1="437.348" x2="62.3167" y2="442.799" gradientUnits="userSpaceOnUse">
<stop offset="0.0001" stop-color="#141947"/>
<stop offset="0.258333" stop-color="#252C70"/>
<stop offset="0.552951" stop-color="#484D69"/>
<stop offset="0.773212" stop-color="#4B4F63"/>
<stop offset="1" stop-color="#5C5C40"/>
</linearGradient>
</defs>
</svg>
