<svg width="444" height="569" viewBox="0 0 444 569" fill="none" xmlns="http://www.w3.org/2000/svg">
<g clip-path="url(#clip0_832_17)">
<circle cx="225.349" cy="385.964" r="183.256" transform="rotate(-56.2956 225.349 385.964)" fill="#C4C4C4"/>
<circle cx="225.349" cy="385.964" r="183.256" transform="rotate(-56.2956 225.349 385.964)" fill="url(#paint0_linear_832_17)"/>
<circle cx="225.349" cy="385.964" r="183.256" transform="rotate(-56.2956 225.349 385.964)" fill="url(#paint1_linear_832_17)"/>
<circle r="27.6003" transform="matrix(0.554908 -0.831912 -0.831912 -0.554908 114.058 76.6423)" fill="#C4C4C4"/>
<circle r="27.6003" transform="matrix(0.554908 -0.831912 -0.831912 -0.554908 114.058 76.6423)" fill="url(#paint2_linear_832_17)"/>
<circle r="27.6003" transform="matrix(0.554908 -0.831912 -0.831912 -0.554908 114.058 76.6423)" fill="url(#paint3_linear_832_17)"/>
<path d="M111.457 331C139.457 296 111.457 292 96.4572 279C42.8569 330.2 50.124 405 60.4576 436C80.1241 435.667 114.857 427.4 96.4572 397C73.4572 359 83.4572 366 111.457 331Z" fill="url(#paint4_linear_832_17)"/>
<path d="M111.457 331C139.457 296 111.457 292 96.4572 279C42.8569 330.2 50.124 405 60.4576 436C80.1241 435.667 114.857 427.4 96.4572 397C73.4572 359 83.4572 366 111.457 331Z" fill="url(#paint5_linear_832_17)"/>
<path d="M169.457 337C123.457 327 155.457 318 192.457 296C200.457 289.334 223.657 270.8 252.457 250C281.257 229.2 322.457 248.667 339.457 261C356.79 279.667 391.657 327.4 392.457 369C393.457 421 339.457 360 317.457 337C295.457 314 291.457 315 271.457 350C251.457 385 215.457 347 169.457 337Z" fill="url(#paint6_linear_832_17)"/>
<path d="M169.457 337C123.457 327 155.457 318 192.457 296C200.457 289.334 223.657 270.8 252.457 250C281.257 229.2 322.457 248.667 339.457 261C356.79 279.667 391.657 327.4 392.457 369C393.457 421 339.457 360 317.457 337C295.457 314 291.457 315 271.457 350C251.457 385 215.457 347 169.457 337Z" fill="url(#paint7_linear_832_17)"/>
<path d="M252.457 393C239.457 384 192.457 374 160.457 389C152.124 397.333 140.457 417.6 160.457 432C180.457 446.4 264.79 438 304.457 432C301.124 400.333 289.857 341.8 271.457 361C248.457 385 265.457 402 252.457 393Z" fill="url(#paint8_linear_832_17)"/>
<path d="M252.457 393C239.457 384 192.457 374 160.457 389C152.124 397.333 140.457 417.6 160.457 432C180.457 446.4 264.79 438 304.457 432C301.124 400.333 289.857 341.8 271.457 361C248.457 385 265.457 402 252.457 393Z" fill="url(#paint9_linear_832_17)"/>
<path d="M177.124 255.333H153.79C152.906 255.333 152.058 255.684 151.433 256.309C150.808 256.934 150.457 257.782 150.457 258.666V282C150.457 283.833 151.957 285.333 153.79 285.333H160.457L164.274 289.15C164.924 289.8 165.974 289.8 166.624 289.15L170.457 285.333H177.124C178.957 285.333 180.457 283.833 180.457 282V258.666C180.457 256.833 178.957 255.333 177.124 255.333ZM165.457 260.833C167.94 260.833 169.957 262.85 169.957 265.333C169.957 267.816 167.94 269.833 165.457 269.833C162.974 269.833 160.957 267.816 160.957 265.333C160.957 262.85 162.974 260.833 165.457 260.833ZM175.457 278.666H155.457V277.166C155.457 273.833 162.124 272 165.457 272C168.79 272 175.457 273.833 175.457 277.166V278.666Z" fill="url(#paint10_linear_832_17)"/>
<path d="M297.463 332.68H274.142C273.259 332.68 272.411 333.137 271.786 333.952C271.162 334.766 270.811 335.871 270.811 337.023V367.424C270.811 369.813 272.31 371.767 274.142 371.767H280.805L284.62 376.74C285.269 377.587 286.319 377.587 286.968 376.74L290.8 371.767H297.463C299.295 371.767 300.794 369.813 300.794 367.424V337.023C300.794 334.634 299.295 332.68 297.463 332.68ZM285.802 339.846C288.284 339.846 290.3 342.473 290.3 345.709C290.3 348.945 288.284 351.572 285.802 351.572C283.32 351.572 281.305 348.945 281.305 345.709C281.305 342.473 283.32 339.846 285.802 339.846ZM295.797 363.081H275.808V361.127C275.808 356.784 282.471 354.395 285.802 354.395C289.134 354.395 295.797 356.784 295.797 361.127V363.081Z" fill="url(#paint11_linear_832_17)"/>
<path d="M370.924 429.747H347.603C346.719 429.747 345.872 430.205 345.247 431.019C344.622 431.834 344.271 432.938 344.271 434.09V464.492C344.271 466.88 345.771 468.835 347.603 468.835H354.266L358.081 473.808C358.73 474.655 359.78 474.655 360.429 473.808L364.261 468.835H370.924C372.756 468.835 374.255 466.88 374.255 464.492V434.09C374.255 431.701 372.756 429.747 370.924 429.747ZM359.263 436.913C361.745 436.913 363.761 439.541 363.761 442.776C363.761 446.012 361.745 448.639 359.263 448.639C356.781 448.639 354.766 446.012 354.766 442.776C354.766 439.541 356.781 436.913 359.263 436.913ZM369.258 460.149H349.269V458.194C349.269 453.851 355.932 451.462 359.263 451.462C362.595 451.462 369.258 453.851 369.258 458.194V460.149Z" fill="url(#paint12_linear_832_17)"/>
<path d="M212.01 429.747H188.689C187.805 429.747 186.958 430.205 186.333 431.019C185.708 431.834 185.357 432.938 185.357 434.09V464.492C185.357 466.88 186.857 468.835 188.689 468.835H195.352L199.167 473.808C199.816 474.655 200.866 474.655 201.515 473.808L205.347 468.835H212.01C213.842 468.835 215.341 466.88 215.341 464.492V434.09C215.341 431.701 213.842 429.747 212.01 429.747ZM200.349 436.913C202.831 436.913 204.847 439.541 204.847 442.776C204.847 446.012 202.831 448.639 200.349 448.639C197.867 448.639 195.852 446.012 195.852 442.776C195.852 439.541 197.867 436.913 200.349 436.913ZM210.344 460.149H190.355V458.194C190.355 453.851 197.018 451.462 200.349 451.462C203.681 451.462 210.344 453.851 210.344 458.194V460.149Z" fill="url(#paint13_linear_832_17)"/>
<path d="M85.5771 363.949H62.2563C61.3728 363.949 60.5254 364.407 59.9006 365.221C59.2758 366.036 58.9248 367.14 58.9248 368.292V398.694C58.9248 401.083 60.424 403.037 62.2563 403.037H68.9194L72.734 408.01C73.3837 408.857 74.4331 408.857 75.0828 408.01L78.914 403.037H85.5771C87.4094 403.037 88.9086 401.083 88.9086 398.694V368.292C88.9086 365.904 87.4094 363.949 85.5771 363.949ZM73.9167 371.115C76.3987 371.115 78.4143 373.743 78.4143 376.978C78.4143 380.214 76.3987 382.842 73.9167 382.842C71.4347 382.842 69.4191 380.214 69.4191 376.978C69.4191 373.743 71.4347 371.115 73.9167 371.115ZM83.9113 394.351H63.9221V392.396C63.9221 388.053 70.5852 385.665 73.9167 385.665C77.2483 385.665 83.9113 388.053 83.9113 392.396V394.351Z" fill="url(#paint14_linear_832_17)"/>
</g>
<defs>
<linearGradient id="paint0_linear_832_17" x1="76.4959" y1="504.067" x2="367.991" y2="560.821" gradientUnits="userSpaceOnUse">
<stop offset="0.0001" stop-color="#141947"/>
<stop offset="0.258333" stop-color="#252C70"/>
<stop offset="0.552951" stop-color="#484D69"/>
<stop offset="0.773212" stop-color="#4B4F63"/>
<stop offset="1" stop-color="#5C5C40"/>
</linearGradient>
<linearGradient id="paint1_linear_832_17" x1="144.655" y1="324.522" x2="518.842" y2="218.498" gradientUnits="userSpaceOnUse">
<stop offset="0.0001" stop-color="#180618"/>
<stop offset="0.303692" stop-color="#702564"/>
<stop offset="0.487673" stop-color="#604869"/>
<stop offset="0.773212" stop-color="#CFBB52"/>
<stop offset="1" stop-color="#5C405A"/>
</linearGradient>
<linearGradient id="paint2_linear_832_17" x1="5.18143" y1="45.3879" x2="49.0837" y2="53.9356" gradientUnits="userSpaceOnUse">
<stop offset="0.0001" stop-color="#141947"/>
<stop offset="0.258333" stop-color="#252C70"/>
<stop offset="0.552951" stop-color="#484D69"/>
<stop offset="0.773212" stop-color="#4B4F63"/>
<stop offset="1" stop-color="#5C5C40"/>
</linearGradient>
<linearGradient id="paint3_linear_832_17" x1="5.18143" y1="45.3879" x2="65.7605" y2="-15.1403" gradientUnits="userSpaceOnUse">
<stop offset="0.0001" stop-color="#471445"/>
<stop offset="0.258333" stop-color="#702564"/>
<stop offset="0.487673" stop-color="#604869"/>
<stop offset="0.773212" stop-color="#CFBB52"/>
<stop offset="1" stop-color="#5C405A"/>
</linearGradient>
<linearGradient id="paint4_linear_832_17" x1="59.7664" y1="408.091" x2="117.306" y2="413.102" gradientUnits="userSpaceOnUse">
<stop offset="0.0001" stop-color="#141947"/>
<stop offset="0.258333" stop-color="#252C70"/>
<stop offset="0.552951" stop-color="#484D69"/>
<stop offset="0.773212" stop-color="#4B4F63"/>
<stop offset="1" stop-color="#5C5C40"/>
</linearGradient>
<linearGradient id="paint5_linear_832_17" x1="59.7664" y1="408.091" x2="188.144" y2="350.709" gradientUnits="userSpaceOnUse">
<stop offset="0.0001" stop-color="#471445"/>
<stop offset="0.258333" stop-color="#702564"/>
<stop offset="0.487673" stop-color="#604869"/>
<stop offset="0.773212" stop-color="#CFBB52"/>
<stop offset="1" stop-color="#5C405A"/>
</linearGradient>
<linearGradient id="paint6_linear_832_17" x1="169.761" y1="404.557" x2="361.565" y2="450.657" gradientUnits="userSpaceOnUse">
<stop offset="0.0001" stop-color="#141947"/>
<stop offset="0.258333" stop-color="#252C70"/>
<stop offset="0.552951" stop-color="#484D69"/>
<stop offset="0.773212" stop-color="#4B4F63"/>
<stop offset="1" stop-color="#5C5C40"/>
</linearGradient>
<linearGradient id="paint7_linear_832_17" x1="333.457" y1="416.566" x2="402.115" y2="199.148" gradientUnits="userSpaceOnUse">
<stop offset="0.0001" stop-color="#360C34"/>
<stop offset="0.258333" stop-color="#702564"/>
<stop offset="0.487673" stop-color="#604869"/>
<stop offset="0.773212" stop-color="#CFBB52"/>
<stop offset="1" stop-color="#5C405A"/>
</linearGradient>
<linearGradient id="paint8_linear_832_17" x1="169.761" y1="404.557" x2="361.565" y2="450.657" gradientUnits="userSpaceOnUse">
<stop offset="0.0001" stop-color="#141947"/>
<stop offset="0.258333" stop-color="#252C70"/>
<stop offset="0.552951" stop-color="#484D69"/>
<stop offset="0.773212" stop-color="#4B4F63"/>
<stop offset="1" stop-color="#5C5C40"/>
</linearGradient>
<linearGradient id="paint9_linear_832_17" x1="333.457" y1="416.566" x2="402.115" y2="199.148" gradientUnits="userSpaceOnUse">
<stop offset="0.0001" stop-color="#360C34"/>
<stop offset="0.258333" stop-color="#702564"/>
<stop offset="0.487673" stop-color="#604869"/>
<stop offset="0.773212" stop-color="#CFBB52"/>
<stop offset="1" stop-color="#5C405A"/>
</linearGradient>
<linearGradient id="paint10_linear_832_17" x1="153.273" y1="283.539" x2="210.157" y2="218.13" gradientUnits="userSpaceOnUse">
<stop offset="0.0001" stop-color="#471445"/>
<stop offset="0.258333" stop-color="#702564"/>
<stop offset="0.552951" stop-color="#604869"/>
<stop offset="0.773212" stop-color="#604B63"/>
<stop offset="1" stop-color="#5C405A"/>
</linearGradient>
<linearGradient id="paint11_linear_832_17" x1="273.625" y1="369.43" x2="347.879" y2="303.934" gradientUnits="userSpaceOnUse">
<stop offset="0.0001" stop-color="#471445"/>
<stop offset="0.258333" stop-color="#702564"/>
<stop offset="0.552951" stop-color="#604869"/>
<stop offset="0.773212" stop-color="#604B63"/>
<stop offset="1" stop-color="#5C405A"/>
</linearGradient>
<linearGradient id="paint12_linear_832_17" x1="347.086" y1="466.497" x2="421.34" y2="401.002" gradientUnits="userSpaceOnUse">
<stop offset="0.0001" stop-color="#471445"/>
<stop offset="0.258333" stop-color="#702564"/>
<stop offset="0.552951" stop-color="#604869"/>
<stop offset="0.773212" stop-color="#604B63"/>
<stop offset="1" stop-color="#5C405A"/>
</linearGradient>
<linearGradient id="paint13_linear_832_17" x1="188.172" y1="466.497" x2="262.426" y2="401.002" gradientUnits="userSpaceOnUse">
<stop offset="0.0001" stop-color="#471445"/>
<stop offset="0.258333" stop-color="#702564"/>
<stop offset="0.552951" stop-color="#604869"/>
<stop offset="0.773212" stop-color="#CFBB52"/>
<stop offset="1" stop-color="#5C405A"/>
</linearGradient>
<linearGradient id="paint14_linear_832_17" x1="61.7392" y1="400.7" x2="135.993" y2="335.204" gradientUnits="userSpaceOnUse">
<stop offset="0.0001" stop-color="#471445"/>
<stop offset="0.258333" stop-color="#702564"/>
<stop offset="0.552951" stop-color="#604869"/>
<stop offset="0.773212" stop-color="#604B63"/>
<stop offset="1" stop-color="#5C405A"/>
</linearGradient>
<clipPath id="clip0_832_17">
<rect width="444" height="569" rx="222" fill="white"/>
</clipPath>
</defs>
</svg>
