<svg width="831" height="861" viewBox="0 0 831 861" fill="none" xmlns="http://www.w3.org/2000/svg">
<g clip-path="url(#clip0_832_39)">
<path d="M213.997 215.61C197.196 177.104 214.79 132.268 253.296 115.467L518.817 -0.390386L830.643 714.251L495.401 860.53L213.997 215.61Z" fill="#1CA139"/>
<path d="M213.997 215.61C197.196 177.104 214.79 132.268 253.296 115.467L518.817 -0.390386L830.643 714.251L495.401 860.53L213.997 215.61Z" fill="url(#paint0_linear_832_39)"/>
<path d="M80.9035 129.598C75.3096 119.961 65.0485 120.499 53.5518 124.589L47.1703 110.523L38.6519 114.399L44.8927 128.079C42.6515 129.116 40.3596 130.193 38.108 131.321L31.8268 117.59L23.3084 121.465L29.7003 135.44C27.8444 136.336 26.0392 137.192 24.2848 138.007L24.2444 137.956L12.4605 143.352L16.638 152.458C16.638 152.458 22.8852 149.478 22.8241 149.61C26.2822 148.019 28.3237 149.544 29.4333 151.147L36.7007 167.16C36.944 167.049 37.2382 166.898 37.6638 166.808C37.3697 166.959 37.0755 167.11 36.741 167.211L46.9275 189.602C47.2585 190.747 47.3946 192.794 45.0115 193.86C45.143 193.922 38.8254 196.709 38.8254 196.709L41.7721 207.706L52.917 202.653C55.0059 201.738 57.0037 200.812 59.0419 199.936L65.5042 214.103L74.0226 210.228L67.641 196.162C69.9734 195.136 72.3057 194.109 74.4961 193.113L80.8881 207.087L89.4065 203.212L82.9442 189.045C96.9416 181.64 105.351 173.46 100.397 159.419C96.4687 148.125 89.1432 145.583 80.0839 147.32C83.9563 142.5 84.9957 136.618 80.9035 129.598V129.598ZM82.7778 165.396C87.6196 175.963 68.9034 183.06 63.1129 185.677L54.5469 166.886C60.3373 164.269 77.7652 154.302 82.7778 165.396ZM66.7237 140.628C71.1123 150.313 55.4585 156.052 50.6416 158.226L42.891 141.189C47.7079 139.015 62.1437 130.599 66.7237 140.628Z" fill="white"/>
<path d="M80.9035 129.598C75.3096 119.961 65.0485 120.499 53.5518 124.589L47.1703 110.523L38.6519 114.399L44.8927 128.079C42.6515 129.116 40.3596 130.193 38.108 131.321L31.8268 117.59L23.3084 121.465L29.7003 135.44C27.8444 136.336 26.0392 137.192 24.2848 138.007L24.2444 137.956L12.4605 143.352L16.638 152.458C16.638 152.458 22.8852 149.478 22.8241 149.61C26.2822 148.019 28.3237 149.544 29.4333 151.147L36.7007 167.16C36.944 167.049 37.2382 166.898 37.6638 166.808C37.3697 166.959 37.0755 167.11 36.741 167.211L46.9275 189.602C47.2585 190.747 47.3946 192.794 45.0115 193.86C45.143 193.922 38.8254 196.709 38.8254 196.709L41.7721 207.706L52.917 202.653C55.0059 201.738 57.0037 200.812 59.0419 199.936L65.5042 214.103L74.0226 210.228L67.641 196.162C69.9734 195.136 72.3057 194.109 74.4961 193.113L80.8881 207.087L89.4065 203.212L82.9442 189.045C96.9416 181.64 105.351 173.46 100.397 159.419C96.4687 148.125 89.1432 145.583 80.0839 147.32C83.9563 142.5 84.9957 136.618 80.9035 129.598V129.598ZM82.7778 165.396C87.6196 175.963 68.9034 183.06 63.1129 185.677L54.5469 166.886C60.3373 164.269 77.7652 154.302 82.7778 165.396ZM66.7237 140.628C71.1123 150.313 55.4585 156.052 50.6416 158.226L42.891 141.189C47.7079 139.015 62.1437 130.599 66.7237 140.628Z" fill="url(#paint1_linear_832_39)"/>
<g clip-path="url(#clip1_832_39)">
<rect x="-32.6162" y="336.975" width="253.54" height="48.1585" rx="24.0792" transform="rotate(-22.5651 -32.6162 336.975)" fill="#EDEDED"/>
<rect x="-32.6162" y="336.975" width="253.54" height="48.1585" rx="24.0792" transform="rotate(-22.5651 -32.6162 336.975)" fill="url(#paint2_linear_832_39)"/>
<g clip-path="url(#clip2_832_39)">
<path d="M0.0268686 354.111L-3.13549 346.501L1.58368 344.54L1.99441 345.529L-1.57655 347.012L-0.613015 349.331L2.6198 347.988L3.02899 348.972L-0.203823 350.316L1.17508 353.634L0.0268686 354.111ZM5.99736 351.63L3.62559 345.923L4.69948 345.476L5.07624 346.383L5.1357 346.358C5.1121 346.008 5.19504 345.69 5.38454 345.405C5.57549 345.117 5.83818 344.903 6.17261 344.764C6.24197 344.735 6.32475 344.704 6.42095 344.67C6.51962 344.634 6.59775 344.609 6.65534 344.594L7.09695 345.657C7.04722 345.663 6.96228 345.682 6.84215 345.715C6.72099 345.745 6.60344 345.783 6.48948 345.831C6.22689 345.94 6.01596 346.093 5.85667 346.29C5.69883 346.483 5.60111 346.702 5.56353 346.947C5.52492 347.19 5.55708 347.435 5.66002 347.683L7.10841 351.169L5.99736 351.63ZM12.261 349.162C11.7259 349.385 11.208 349.456 10.7072 349.377C10.2065 349.297 9.75423 349.083 9.35052 348.733C8.94681 348.384 8.62245 347.915 8.37745 347.325C8.13142 346.733 8.02651 346.169 8.06272 345.634C8.09893 345.099 8.2655 344.626 8.56243 344.215C8.85935 343.804 9.27536 343.488 9.81044 343.265C10.3455 343.043 10.8634 342.972 11.3642 343.051C11.8649 343.131 12.3177 343.346 12.7224 343.698C13.1272 344.05 13.4526 344.522 13.6986 345.114C13.9436 345.704 14.0475 346.265 14.0102 346.797C13.973 347.33 13.8059 347.802 13.509 348.212C13.2121 348.623 12.796 348.94 12.261 349.162ZM11.8771 348.228C12.2239 348.084 12.4732 347.873 12.6249 347.595C12.7767 347.317 12.8437 347.003 12.8261 346.653C12.8109 346.302 12.7272 345.943 12.5748 345.577C12.4235 345.212 12.2288 344.901 11.9907 344.643C11.7541 344.381 11.4832 344.204 11.1781 344.113C10.873 344.022 10.547 344.049 10.2002 344.193C9.8509 344.338 9.59966 344.551 9.44648 344.833C9.29578 345.113 9.22852 345.43 9.24469 345.784C9.26231 346.134 9.34678 346.491 9.4981 346.855C9.65045 347.222 9.84444 347.535 10.0801 347.794C10.3182 348.053 10.5892 348.226 10.8933 348.315C11.1999 348.402 11.5278 348.373 11.8771 348.228ZM16.1138 347.426L13.7421 341.719L14.8085 341.276L15.1946 342.205L15.2652 342.175C15.2533 341.811 15.3459 341.485 15.5428 341.197C15.7387 340.906 16.0249 340.683 16.4015 340.527C16.783 340.368 17.1396 340.324 17.4714 340.396C17.8056 340.466 18.0995 340.631 18.3531 340.892L18.4125 340.867C18.4221 340.506 18.538 340.173 18.7601 339.869C18.9812 339.562 19.2974 339.323 19.7086 339.152C20.2264 338.937 20.7162 338.924 21.178 339.112C21.6423 339.3 22.0104 339.721 22.2822 340.375L23.8726 344.202L22.7615 344.664L21.2143 340.941C21.0538 340.554 20.8321 340.318 20.5495 340.232C20.2669 340.146 19.9794 340.164 19.6871 340.285C19.3254 340.436 19.0906 340.664 18.9826 340.97C18.8735 341.274 18.8911 341.6 19.0352 341.946L20.5469 345.584L19.4396 346.044L17.863 342.25C17.7343 341.941 17.5343 341.732 17.2628 341.624C16.9913 341.516 16.7008 341.526 16.3911 341.655C16.1806 341.743 16.0093 341.879 15.8772 342.065C15.7466 342.247 15.6675 342.458 15.6398 342.699C15.6146 342.939 15.6555 343.188 15.7626 343.446L17.2249 346.965L16.1138 347.426ZM30.6713 341.499C30.2056 341.693 29.7499 341.777 29.3042 341.753C28.8599 341.726 28.4622 341.601 28.1109 341.378C27.7597 341.155 27.4928 340.844 27.3101 340.447L28.4249 339.984C28.588 340.299 28.8447 340.508 29.1947 340.609C29.5448 340.711 29.9032 340.685 30.2698 340.533C30.5621 340.411 30.7932 340.237 30.9631 340.01C31.1344 339.779 31.235 339.517 31.265 339.226C31.2975 338.934 31.2504 338.635 31.1238 338.33C30.9951 338.021 30.8134 337.772 30.5788 337.585C30.3441 337.398 30.0803 337.284 29.7873 337.243C29.4968 337.201 29.1999 337.242 28.8967 337.365C28.6663 337.461 28.4511 337.596 28.2512 337.772C28.0513 337.948 27.9062 338.131 27.8161 338.319L26.6997 338.6L25.5334 334.588L29.7175 332.849L30.1267 333.834L26.8976 335.176L27.5409 337.405L27.5855 337.387C27.6744 337.181 27.8214 336.979 28.0265 336.781C28.2341 336.581 28.4791 336.423 28.7615 336.305C29.2247 336.113 29.683 336.052 30.1363 336.122C30.5921 336.191 31.0033 336.373 31.3699 336.668C31.738 336.96 32.0232 337.353 32.2255 337.847C32.4329 338.338 32.5041 338.824 32.4393 339.305C32.3769 339.784 32.1939 340.217 31.8902 340.605C31.5879 340.989 31.1816 341.287 30.6713 341.499ZM37.3069 338.768C36.7188 339.009 36.1528 339.063 35.609 338.929C35.0651 338.794 34.561 338.48 34.0965 337.984C33.6321 337.489 33.228 336.827 32.8841 336C32.5413 335.175 32.3587 334.424 32.3363 333.748C32.3163 333.071 32.4505 332.492 32.7391 332.012C33.0301 331.531 33.4667 331.169 34.0488 330.927C34.631 330.685 35.1945 330.633 35.7393 330.77C36.2832 330.904 36.7868 331.217 37.2502 331.71C37.7151 332.2 38.1189 332.857 38.4617 333.682C38.8065 334.512 38.9907 335.266 39.0142 335.945C39.0367 336.621 38.9041 337.201 38.6166 337.683C38.3281 338.163 37.8915 338.525 37.3069 338.768ZM36.8946 337.776C37.4099 337.562 37.708 337.143 37.7888 336.52C37.8722 335.895 37.7162 335.107 37.3209 334.156C37.0584 333.524 36.7697 333.018 36.4547 332.638C36.1412 332.254 35.8138 332.001 35.4724 331.878C35.1324 331.752 34.7928 331.76 34.4534 331.901C33.9406 332.114 33.643 332.534 33.5607 333.161C33.4784 333.788 33.6331 334.576 34.0249 335.526C34.2884 336.16 34.577 336.669 34.8905 337.053C35.2054 337.433 35.5323 337.685 35.8713 337.809C36.2092 337.93 36.5503 337.919 36.8946 337.776Z" fill="#09180D" fill-opacity="0.8"/>
</g>
<g clip-path="url(#clip3_832_39)">
<rect x="122.372" y="281.773" width="80.7363" height="31.1614" rx="15.5807" transform="rotate(-22.5651 122.372 281.773)" fill="white"/>
<rect x="122.372" y="281.773" width="80.7363" height="31.1614" rx="15.5807" transform="rotate(-22.5651 122.372 281.773)" fill="url(#paint3_linear_832_39)"/>
<g clip-path="url(#clip4_832_39)">
<circle cx="142.738" cy="290.182" r="7.79034" transform="rotate(-22.5651 142.738 290.182)" fill="#09180D" fill-opacity="0.8"/>
<path fill-rule="evenodd" clip-rule="evenodd" d="M141.959 285.163C142.032 285.134 142.119 285.108 142.152 285.105C142.185 285.102 142.255 285.09 142.308 285.08C142.361 285.07 142.491 285.049 142.598 285.033C142.704 285.018 142.809 284.998 142.83 284.989C142.852 284.981 142.937 284.966 143.019 284.958C143.101 284.949 143.209 284.936 143.258 284.929C143.307 284.922 143.394 284.913 143.449 284.91C143.505 284.907 143.611 284.9 143.685 284.894C143.889 284.877 144.082 284.873 144.186 284.882C144.238 284.887 144.289 284.887 144.3 284.883C144.311 284.878 144.432 284.885 144.569 284.897C144.724 284.912 144.826 284.913 144.838 284.901C144.874 284.862 145.663 284.44 145.692 284.443C145.753 284.45 145.736 284.652 145.655 284.896C145.646 284.925 145.64 284.952 145.642 284.958C145.644 284.963 145.608 285.024 145.561 285.093C145.456 285.25 145.446 285.293 145.501 285.364C145.544 285.421 145.652 285.701 145.707 285.902C145.759 286.093 145.814 286.285 145.861 286.441C145.922 286.648 145.949 286.763 145.972 286.918C145.983 286.993 146.001 287.094 146.013 287.144C146.068 287.372 146.078 287.425 146.091 287.571C146.098 287.657 146.111 287.778 146.12 287.838C146.137 287.966 146.127 288.026 146.088 288.013C146.071 288.007 146.033 287.941 145.976 287.821C145.778 287.4 145.634 287.121 145.501 286.906C145.475 286.863 145.437 286.801 145.418 286.77C145.288 286.556 145.209 286.446 145.099 286.326C144.902 286.11 144.874 286.099 144.801 286.214C144.78 286.248 144.752 286.281 144.739 286.286C144.726 286.291 144.693 286.33 144.664 286.371C144.636 286.413 144.571 286.498 144.519 286.56C144.467 286.623 144.404 286.706 144.379 286.747C144.354 286.787 144.309 286.84 144.28 286.865C144.234 286.903 144.14 287.011 144.074 287.101C144.065 287.113 143.994 287.197 143.917 287.286C143.84 287.376 143.758 287.479 143.735 287.515C143.645 287.656 143.56 287.739 143.544 287.701C143.536 287.68 143.59 287.485 143.651 287.315C143.711 287.148 143.778 286.904 143.797 286.786C143.804 286.738 143.824 286.656 143.841 286.603C143.882 286.47 143.899 286.333 143.876 286.309C143.861 286.292 143.843 286.296 143.784 286.33C143.744 286.353 143.614 286.42 143.495 286.479C143.141 286.655 142.581 286.959 142.457 287.043C142.439 287.056 142.344 287.108 142.246 287.16C142.05 287.265 141.887 287.366 141.778 287.451C141.739 287.481 141.674 287.526 141.633 287.549C141.565 287.589 141.559 287.59 141.547 287.56C141.538 287.539 141.545 287.515 141.567 287.493C141.585 287.474 141.641 287.416 141.69 287.363C141.74 287.31 141.838 287.209 141.908 287.138C141.979 287.068 142.055 286.989 142.079 286.965C142.132 286.906 142.305 286.757 142.33 286.746C142.341 286.742 142.369 286.715 142.392 286.687C142.416 286.659 142.468 286.612 142.508 286.583C142.549 286.554 142.654 286.469 142.742 286.394C142.83 286.32 142.959 286.218 143.028 286.167C143.169 286.065 143.31 285.954 143.387 285.884C143.414 285.859 143.491 285.81 143.558 285.775C143.694 285.705 143.724 285.676 143.707 285.634C143.696 285.607 143.575 285.566 143.456 285.55C143.352 285.536 143.208 285.507 143.126 285.484C143.081 285.471 143.008 285.462 142.964 285.463C142.92 285.465 142.852 285.457 142.814 285.445C142.775 285.434 142.671 285.418 142.582 285.409C142.494 285.401 142.392 285.39 142.357 285.385C142.14 285.356 141.916 285.334 141.83 285.334C141.719 285.334 141.68 285.319 141.678 285.276C141.677 285.252 141.689 285.244 141.752 285.231C141.793 285.221 141.887 285.191 141.959 285.163ZM140.821 288.361C140.832 288.38 140.835 288.427 140.829 288.466C140.798 288.646 140.793 288.703 140.797 288.857C140.801 289.039 140.818 289.069 140.898 289.035C140.945 289.016 141.004 289.005 141.243 288.974C141.333 288.962 141.466 288.943 141.537 288.932C141.608 288.92 141.721 288.91 141.787 288.909C141.854 288.909 141.969 288.905 142.044 288.901C142.118 288.898 142.284 288.902 142.411 288.911C142.539 288.92 142.688 288.927 142.742 288.927C142.871 288.927 142.955 288.949 142.971 288.986C142.982 289.014 142.975 289.019 142.872 289.051C142.811 289.071 142.75 289.087 142.736 289.088C142.722 289.088 142.654 289.105 142.586 289.124C142.518 289.144 142.413 289.172 142.353 289.187C142.007 289.273 141.523 289.458 141.254 289.605C140.925 289.787 140.825 289.854 140.81 289.908C140.801 289.94 140.83 290.35 140.853 290.522C140.868 290.633 140.952 291.155 140.981 291.321C140.987 291.361 141.003 291.416 141.014 291.445C141.036 291.497 141.023 291.554 140.99 291.548C140.957 291.542 140.822 291.406 140.622 291.177C140.514 291.053 140.398 290.92 140.363 290.881C140.329 290.842 140.294 290.795 140.287 290.777C140.268 290.731 140.154 290.607 140.11 290.586C140.056 290.559 140.032 290.576 139.978 290.679C139.951 290.73 139.916 290.791 139.898 290.816C139.807 290.946 139.381 291.773 139.323 291.936C139.305 291.985 139.27 292.062 139.244 292.108C139.218 292.154 139.177 292.24 139.153 292.3C139.099 292.436 139.077 292.448 139.042 292.363C139.02 292.312 139.02 292.278 139.04 292.196C139.054 292.14 139.067 292.049 139.069 291.994C139.071 291.938 139.08 291.852 139.09 291.802C139.1 291.752 139.13 291.577 139.157 291.414C139.184 291.251 139.218 291.071 139.234 291.015C139.25 290.959 139.269 290.878 139.276 290.835C139.283 290.793 139.31 290.701 139.335 290.631C139.36 290.561 139.386 290.473 139.392 290.436C139.398 290.399 139.418 290.334 139.435 290.293C139.468 290.213 139.462 290.172 139.417 290.157C139.364 290.14 139.073 290.125 138.999 290.135C138.918 290.147 138.784 290.173 138.687 290.197C138.652 290.205 138.591 290.217 138.551 290.224C138.511 290.231 138.437 290.25 138.386 290.265C138.28 290.298 138.249 290.292 138.268 290.244C138.284 290.202 138.44 290.077 138.571 290.001C138.624 289.969 138.705 289.92 138.75 289.892C138.946 289.768 139.038 289.715 139.234 289.617C139.474 289.496 139.515 289.479 139.745 289.398C139.909 289.341 139.918 289.336 139.955 289.279C140.068 289.106 140.121 289.031 140.193 288.944C140.237 288.891 140.288 288.82 140.307 288.787C140.326 288.753 140.352 288.722 140.365 288.716C140.378 288.711 140.428 288.661 140.475 288.605C140.631 288.424 140.694 288.364 140.748 288.346C140.791 288.331 140.805 288.334 140.821 288.361ZM139.22 293.014C139.245 293.047 139.291 293.113 139.321 293.159C139.351 293.206 139.44 293.323 139.518 293.42C139.595 293.517 139.676 293.617 139.696 293.643C139.734 293.691 139.907 293.862 140.042 293.984C140.135 294.068 140.2 294.089 140.254 294.052C140.291 294.027 140.355 293.988 140.586 293.85C140.632 293.823 140.712 293.773 140.765 293.739C140.914 293.643 140.973 293.62 140.993 293.65C141.002 293.664 140.997 293.763 140.982 293.87C140.956 294.059 140.932 294.412 140.94 294.493C140.943 294.524 140.961 294.538 141.027 294.564C141.248 294.651 141.595 294.732 141.801 294.745C142.1 294.764 142.2 294.777 142.209 294.797C142.22 294.824 142.161 294.849 141.944 294.909C141.567 295.013 141.427 295.046 141.244 295.072C141.039 295.102 141.04 295.099 141.149 295.355C141.213 295.506 141.248 295.568 141.304 295.635C141.427 295.784 141.403 295.87 141.263 295.781C141.223 295.755 141.121 295.702 141.037 295.663C140.953 295.624 140.864 295.575 140.841 295.555C140.817 295.535 140.767 295.499 140.73 295.475C140.61 295.398 140.536 295.343 140.43 295.248C140.373 295.198 140.305 295.148 140.279 295.138C140.252 295.128 140.085 295.108 139.907 295.092C139.729 295.076 139.538 295.055 139.481 295.045C139.424 295.034 139.338 295.019 139.288 295.01C139.108 294.978 139.155 294.908 139.631 294.512C139.695 294.459 139.721 294.398 139.693 294.368C139.606 294.276 139.364 293.731 139.24 293.346C139.147 293.06 139.124 292.956 139.153 292.954C139.164 292.954 139.194 292.98 139.22 293.014ZM145.066 292.697C145.071 292.708 145.039 292.8 144.995 292.902C144.951 293.004 144.878 293.173 144.834 293.277C144.79 293.381 144.726 293.519 144.691 293.584C144.572 293.806 144.577 293.781 144.635 293.893C144.664 293.948 144.702 294.019 144.721 294.051C144.781 294.152 144.767 294.169 144.555 294.257C144.398 294.322 144.357 294.346 144.276 294.418C144.224 294.465 144.164 294.528 144.143 294.558C144.123 294.589 144.073 294.646 144.032 294.686C143.991 294.726 143.928 294.789 143.892 294.827C143.834 294.887 143.772 294.941 143.555 295.122C143.497 295.169 143.315 295.311 143.307 295.314C143.302 295.316 143.295 295.309 143.291 295.298C143.282 295.276 143.316 295.208 143.43 295.018C143.526 294.859 143.611 294.651 143.59 294.628C143.574 294.611 143.48 294.611 143.35 294.628C143.218 294.647 142.989 294.621 142.982 294.588C142.977 294.564 143 294.548 143.127 294.485C143.265 294.417 143.34 294.375 143.612 294.216C143.801 294.104 143.86 294.043 143.906 293.907C143.992 293.651 144.021 293.557 144.017 293.546C144.014 293.54 144.021 293.506 144.032 293.472C144.043 293.438 144.068 293.348 144.089 293.272C144.117 293.167 144.134 293.132 144.16 293.125C144.192 293.117 144.197 293.126 144.271 293.291C144.314 293.387 144.359 293.471 144.372 293.478C144.414 293.501 144.461 293.468 144.525 293.368C144.559 293.316 144.605 293.26 144.627 293.244C144.649 293.228 144.715 293.143 144.774 293.056C144.833 292.968 144.91 292.859 144.945 292.814C144.981 292.77 145.011 292.724 145.013 292.714C145.017 292.685 145.056 292.673 145.066 292.697Z" fill="#FAE682"/>
<path d="M159.385 287.575L156.618 280.916L160.793 279.181L161.152 280.046L157.982 281.363L158.825 283.392L161.778 282.166L162.136 283.027L159.183 284.254L160.031 286.293L163.24 284.959L163.599 285.824L159.385 287.575ZM166.417 276.844L167.425 276.425L169.245 280.805C169.439 281.271 169.501 281.729 169.431 282.18C169.361 282.629 169.17 283.039 168.859 283.409C168.547 283.778 168.125 284.073 167.591 284.295C167.06 284.515 166.554 284.606 166.073 284.567C165.591 284.526 165.166 284.372 164.798 284.106C164.43 283.837 164.149 283.469 163.955 283.003L162.135 278.624L163.14 278.206L164.926 282.504C165.051 282.806 165.228 283.046 165.458 283.225C165.69 283.403 165.956 283.509 166.257 283.541C166.557 283.572 166.874 283.517 167.21 283.378C167.549 283.237 167.813 283.05 168.003 282.816C168.194 282.579 168.306 282.316 168.339 282.028C168.374 281.739 168.328 281.444 168.203 281.143L166.417 276.844ZM171.653 282.477L168.886 275.818L171.259 274.832C171.775 274.618 172.24 274.529 172.654 274.565C173.071 274.6 173.429 274.74 173.728 274.984C174.027 275.226 174.262 275.552 174.432 275.962C174.601 276.369 174.665 276.763 174.622 277.145C174.581 277.523 174.425 277.868 174.154 278.182C173.884 278.495 173.492 278.758 172.976 278.972L171.178 279.72L170.819 278.855L172.526 278.145C172.851 278.01 173.096 277.854 173.261 277.676C173.428 277.497 173.522 277.299 173.544 277.082C173.565 276.864 173.524 276.631 173.421 276.382C173.316 276.13 173.177 275.933 173.003 275.789C172.831 275.644 172.622 275.566 172.375 275.554C172.13 275.539 171.842 275.6 171.51 275.738L170.248 276.263L172.657 282.06L171.653 282.477ZM173.692 278.107L176.585 280.428L175.441 280.903L172.58 278.569L173.692 278.107Z" fill="#09180D" fill-opacity="0.8"/>
</g>
<g clip-path="url(#clip5_832_39)">
<path fill-rule="evenodd" clip-rule="evenodd" d="M184.556 269.929L188.722 271.649L190.442 267.483L191.831 268.057L189.537 273.611L183.983 271.318L184.556 269.929Z" fill="#09180D" fill-opacity="0.6"/>
</g>
</g>
</g>
<g clip-path="url(#clip6_832_39)">
<path d="M242.797 240.967L241.6 243.866C240.63 243.516 239.62 243.348 238.567 243.361C237.515 243.374 236.49 243.588 235.492 244.003C233.872 244.676 232.591 245.743 231.651 247.203C230.71 248.663 230.252 250.242 230.277 251.941L232.401 251.918C232.382 250.636 232.722 249.449 233.421 248.358C234.121 247.267 235.082 246.467 236.305 245.959C237.782 245.345 239.281 245.301 240.803 245.828L239.683 248.569C239.733 248.716 239.826 248.818 239.963 248.875C240.1 248.931 240.237 248.925 240.376 248.855L245.098 246.893C245.241 246.834 245.352 246.707 245.433 246.512C245.513 246.317 245.529 246.146 245.48 246L243.463 241.103C243.371 240.854 243.149 240.809 242.797 240.967ZM241.182 257.696C239.705 258.31 238.208 258.359 236.69 257.842L237.81 255.101C237.761 254.954 237.667 254.853 237.53 254.796C237.393 254.739 237.254 254.741 237.111 254.8L232.388 256.763C232.25 256.832 232.141 256.964 232.06 257.159C231.98 257.353 231.964 257.524 232.013 257.671L234.03 262.568C234.122 262.817 234.344 262.862 234.696 262.704L235.893 259.805C236.863 260.155 237.873 260.32 238.922 260.302C239.972 260.284 240.997 260.068 241.995 259.653C243.615 258.98 244.896 257.915 245.839 256.46C246.782 255.005 247.238 253.423 247.21 251.715L245.092 251.752C245.112 253.035 244.77 254.219 244.069 255.305C243.367 256.391 242.405 257.188 241.182 257.696Z" fill="#09180D" fill-opacity="0.8"/>
</g>
<g clip-path="url(#clip7_832_39)">
<rect x="256.402" y="216.874" width="256.373" height="48.1585" rx="24.0792" transform="rotate(-22.5651 256.402 216.874)" fill="#EDEDED"/>
<rect x="256.402" y="216.874" width="256.373" height="48.1585" rx="24.0792" transform="rotate(-22.5651 256.402 216.874)" fill="url(#paint4_linear_832_39)"/>
<rect x="256.402" y="216.874" width="256.373" height="48.1585" rx="24.0792" transform="rotate(-22.5651 256.402 216.874)" fill="url(#paint5_linear_832_39)"/>
<g clip-path="url(#clip8_832_39)">
<path d="M289.045 234.011L285.883 226.401L290.602 224.439L291.013 225.428L287.442 226.912L288.406 229.231L291.638 227.887L292.048 228.872L288.815 230.215L290.194 233.534L289.045 234.011ZM295.016 231.53L292.644 225.822L293.718 225.376L294.095 226.282L294.154 226.258C294.131 225.907 294.214 225.59 294.403 225.305C294.594 225.016 294.857 224.802 295.191 224.663C295.261 224.635 295.343 224.603 295.44 224.569C295.538 224.534 295.616 224.509 295.674 224.493L296.116 225.556C296.066 225.562 295.981 225.582 295.861 225.614C295.74 225.644 295.622 225.683 295.508 225.73C295.245 225.839 295.035 225.992 294.875 226.189C294.717 226.383 294.62 226.602 294.582 226.847C294.543 227.09 294.576 227.335 294.679 227.582L296.127 231.068L295.016 231.53ZM301.28 229.062C300.744 229.284 300.227 229.356 299.726 229.276C299.225 229.197 298.773 228.982 298.369 228.633C297.965 228.284 297.641 227.814 297.396 227.225C297.15 226.632 297.045 226.069 297.081 225.534C297.117 224.999 297.284 224.526 297.581 224.115C297.878 223.704 298.294 223.387 298.829 223.165C299.364 222.942 299.882 222.871 300.383 222.951C300.884 223.03 301.336 223.246 301.741 223.598C302.146 223.949 302.471 224.421 302.717 225.013C302.962 225.603 303.066 226.164 303.029 226.697C302.992 227.229 302.824 227.701 302.528 228.112C302.231 228.523 301.815 228.84 301.28 229.062ZM300.896 228.128C301.242 227.984 301.492 227.772 301.643 227.494C301.795 227.216 301.862 226.902 301.845 226.552C301.83 226.201 301.746 225.843 301.593 225.476C301.442 225.112 301.247 224.801 301.009 224.542C300.773 224.28 300.502 224.104 300.197 224.013C299.892 223.922 299.566 223.948 299.219 224.092C298.869 224.237 298.618 224.451 298.465 224.732C298.314 225.013 298.247 225.33 298.263 225.683C298.281 226.033 298.365 226.39 298.517 226.754C298.669 227.121 298.863 227.434 299.099 227.694C299.337 227.952 299.608 228.125 299.912 228.214C300.218 228.302 300.546 228.273 300.896 228.128ZM305.132 227.326L302.761 221.618L303.827 221.175L304.213 222.104L304.284 222.075C304.272 221.711 304.364 221.385 304.561 221.096C304.757 220.806 305.043 220.582 305.42 220.426C305.802 220.267 306.158 220.224 306.49 220.295C306.824 220.365 307.118 220.531 307.372 220.791L307.431 220.767C307.441 220.405 307.557 220.073 307.779 219.768C308 219.461 308.316 219.223 308.727 219.052C309.245 218.837 309.735 218.823 310.197 219.012C310.661 219.199 311.029 219.62 311.301 220.274L312.891 224.102L311.78 224.563L310.233 220.84C310.072 220.454 309.851 220.217 309.568 220.131C309.285 220.046 308.998 220.063 308.706 220.185C308.344 220.335 308.109 220.563 308.001 220.87C307.892 221.174 307.91 221.499 308.054 221.846L309.565 225.484L308.458 225.944L306.882 222.15C306.753 221.84 306.553 221.631 306.281 221.523C306.01 221.415 305.719 221.426 305.41 221.554C305.199 221.642 305.028 221.779 304.896 221.964C304.765 222.146 304.686 222.358 304.658 222.599C304.633 222.839 304.674 223.088 304.781 223.345L306.243 226.864L305.132 227.326ZM319.837 221.364C319.248 221.605 318.682 221.659 318.139 221.525C317.595 221.39 317.091 221.075 316.626 220.58C316.162 220.084 315.758 219.423 315.414 218.596C315.071 217.771 314.888 217.02 314.866 216.344C314.846 215.667 314.98 215.088 315.269 214.608C315.56 214.127 315.996 213.765 316.579 213.523C317.161 213.281 317.724 213.229 318.269 213.365C318.813 213.5 319.316 213.813 319.78 214.306C320.245 214.796 320.649 215.453 320.991 216.278C321.336 217.108 321.52 217.862 321.544 218.541C321.566 219.217 321.434 219.796 321.146 220.279C320.858 220.759 320.421 221.121 319.837 221.364ZM319.424 220.372C319.94 220.157 320.238 219.739 320.319 219.115C320.402 218.491 320.246 217.703 319.851 216.752C319.588 216.12 319.299 215.614 318.984 215.234C318.671 214.85 318.343 214.597 318.002 214.474C317.662 214.348 317.322 214.356 316.983 214.497C316.47 214.71 316.173 215.13 316.09 215.757C316.008 216.383 316.163 217.172 316.555 218.122C316.818 218.756 317.107 219.265 317.42 219.649C317.735 220.029 318.062 220.281 318.401 220.405C318.739 220.526 319.08 220.515 319.424 220.372ZM324.39 219.406C324.186 219.491 323.982 219.491 323.776 219.409C323.569 219.323 323.423 219.178 323.338 218.972C323.253 218.769 323.254 218.565 323.341 218.361C323.426 218.154 323.57 218.008 323.773 217.924C323.977 217.839 324.182 217.84 324.388 217.925C324.594 218.008 324.739 218.151 324.824 218.354C324.881 218.491 324.898 218.63 324.876 218.773C324.855 218.912 324.803 219.038 324.719 219.152C324.636 219.265 324.526 219.35 324.39 219.406ZM329.003 217.555C328.415 217.796 327.849 217.85 327.305 217.716C326.761 217.581 326.257 217.266 325.792 216.771C325.328 216.275 324.924 215.614 324.58 214.787C324.237 213.962 324.055 213.211 324.032 212.535C324.012 211.858 324.146 211.279 324.435 210.799C324.726 210.318 325.163 209.956 325.745 209.714C326.327 209.472 326.89 209.42 327.435 209.556C327.979 209.691 328.483 210.004 328.946 210.497C329.411 210.987 329.815 211.644 330.158 212.469C330.502 213.299 330.687 214.053 330.71 214.732C330.733 215.408 330.6 215.988 330.312 216.47C330.024 216.95 329.587 217.312 329.003 217.555ZM328.59 216.563C329.106 216.348 329.404 215.93 329.485 215.306C329.568 214.682 329.412 213.894 329.017 212.943C328.754 212.311 328.466 211.805 328.151 211.425C327.837 211.041 327.51 210.788 327.168 210.665C326.828 210.539 326.489 210.547 326.149 210.688C325.636 210.901 325.339 211.321 325.257 211.948C325.174 212.574 325.329 213.363 325.721 214.313C325.984 214.947 326.273 215.456 326.586 215.84C326.901 216.22 327.228 216.472 327.567 216.596C327.905 216.717 328.246 216.706 328.59 216.563ZM335.757 214.748C335.169 214.989 334.603 215.043 334.059 214.909C333.516 214.775 333.011 214.46 332.547 213.964C332.082 213.469 331.678 212.807 331.335 211.98C330.992 211.155 330.809 210.404 330.787 209.728C330.767 209.051 330.901 208.472 331.189 207.992C331.48 207.511 331.917 207.149 332.499 206.907C333.081 206.665 333.645 206.613 334.19 206.75C334.734 206.884 335.237 207.197 335.701 207.69C336.165 208.18 336.569 208.837 336.912 209.662C337.257 210.492 337.441 211.246 337.465 211.925C337.487 212.601 337.355 213.181 337.067 213.663C336.778 214.143 336.342 214.505 335.757 214.748ZM335.345 213.756C335.86 213.542 336.158 213.123 336.239 212.5C336.323 211.875 336.167 211.087 335.771 210.136C335.509 209.504 335.22 208.998 334.905 208.618C334.592 208.234 334.264 207.981 333.923 207.858C333.583 207.732 333.243 207.74 332.904 207.881C332.391 208.094 332.093 208.514 332.011 209.141C331.929 209.768 332.084 210.556 332.475 211.506C332.739 212.14 333.027 212.649 333.341 213.033C333.656 213.413 333.983 213.665 334.322 213.789C334.66 213.91 335.001 213.899 335.345 213.756ZM339.862 212.894L340.454 204.944L340.431 204.888L336.589 206.485L336.179 205.5L341.211 203.409L341.634 204.428L341.062 212.395L339.862 212.894Z" fill="#09180D" fill-opacity="0.8"/>
</g>
<g clip-path="url(#clip9_832_39)">
<rect x="411.391" y="161.673" width="83.5691" height="31.1614" rx="15.5807" transform="rotate(-22.5651 411.391 161.673)" fill="white"/>
<rect x="411.391" y="161.673" width="83.5691" height="31.1614" rx="15.5807" transform="rotate(-22.5651 411.391 161.673)" fill="url(#paint6_linear_832_39)"/>
<g clip-path="url(#clip10_832_39)">
<path d="M439.459 168.921C440.1 173.177 437.168 177.144 432.918 177.783C428.662 178.424 424.695 175.491 424.056 171.242C423.415 166.986 426.342 163.021 430.598 162.38C434.845 161.736 438.818 164.666 439.459 168.921Z" fill="#09180D" fill-opacity="0.8"/>
<path d="M434.808 167.762C434.552 166.748 433.612 166.532 432.469 166.605L432.255 165.171L431.387 165.302L431.598 166.697C431.369 166.733 431.134 166.771 430.902 166.815L430.689 165.414L429.82 165.544L430.037 166.97C429.846 167.003 429.661 167.034 429.482 167.062L429.48 167.056L428.277 167.24L428.42 168.169C428.42 168.169 429.06 168.061 429.051 168.071C429.404 168.017 429.549 168.207 429.608 168.381L429.851 170.013C429.876 170.009 429.907 170.003 429.947 170.006C429.917 170.012 429.887 170.018 429.854 170.018L430.196 172.302C430.197 172.413 430.156 172.602 429.914 172.636C429.924 172.645 429.282 172.734 429.282 172.734L429.265 173.803L430.4 173.634C430.613 173.605 430.817 173.573 431.023 173.546L431.241 174.991L432.11 174.861L431.896 173.427C432.133 173.395 432.37 173.362 432.594 173.329L432.81 174.754L433.679 174.624L433.461 173.179C434.915 172.872 435.884 172.35 435.799 170.955C435.736 169.835 435.14 169.417 434.278 169.34C434.751 169.005 434.997 168.501 434.808 167.762V167.762ZM434.055 171.041C434.22 172.119 432.348 172.277 431.758 172.364L431.469 170.448C432.059 170.361 433.889 169.91 434.055 171.041ZM433.244 168.392C433.391 169.379 431.83 169.494 431.34 169.566L431.079 167.829C431.57 167.756 433.09 167.369 433.244 168.392Z" fill="#FAE682"/>
<path d="M448.405 167.474L445.638 160.816L448.076 159.802C448.549 159.606 448.973 159.521 449.347 159.549C449.721 159.574 450.04 159.686 450.304 159.887C450.567 160.085 450.767 160.349 450.904 160.679C451.019 160.956 451.065 161.211 451.043 161.444C451.019 161.675 450.946 161.884 450.822 162.07C450.7 162.253 450.548 162.413 450.366 162.549L450.393 162.614C450.618 162.533 450.864 162.515 451.129 162.56C451.395 162.602 451.648 162.714 451.887 162.897C452.125 163.08 452.316 163.344 452.459 163.689C452.601 164.029 452.648 164.368 452.6 164.706C452.553 165.04 452.397 165.355 452.131 165.651C451.864 165.945 451.473 166.199 450.957 166.414L448.405 167.474ZM449.051 166.195L450.502 165.593C450.983 165.393 451.289 165.156 451.419 164.883C451.55 164.611 451.557 164.334 451.441 164.055C451.354 163.844 451.22 163.674 451.041 163.542C450.862 163.411 450.652 163.334 450.412 163.312C450.173 163.289 449.92 163.333 449.651 163.445L448.165 164.062L449.051 166.195ZM447.84 163.279L449.186 162.719C449.411 162.626 449.596 162.498 449.74 162.337C449.886 162.174 449.979 161.993 450.021 161.793C450.063 161.59 450.04 161.381 449.951 161.166C449.836 160.891 449.644 160.7 449.374 160.594C449.103 160.488 448.769 160.517 448.37 160.683L446.998 161.253L447.84 163.279ZM451.659 159.327L451.3 158.463L456.454 156.321L456.813 157.186L454.735 158.049L457.143 163.843L456.142 164.259L453.734 158.465L451.659 159.327ZM463.737 155.834L462.722 156.255C462.593 156.055 462.441 155.894 462.267 155.774C462.092 155.653 461.904 155.567 461.702 155.516C461.501 155.466 461.292 155.45 461.077 155.471C460.864 155.491 460.652 155.545 460.439 155.633C460.055 155.793 459.752 156.032 459.529 156.351C459.308 156.669 459.187 157.051 459.166 157.497C459.147 157.942 459.25 158.433 459.473 158.971C459.699 159.512 459.975 159.934 460.304 160.235C460.634 160.534 460.991 160.717 461.373 160.781C461.756 160.846 462.137 160.799 462.517 160.642C462.727 160.554 462.915 160.443 463.08 160.309C463.246 160.171 463.383 160.014 463.49 159.837C463.597 159.66 463.67 159.469 463.708 159.262C463.748 159.052 463.745 158.833 463.698 158.603L464.714 158.185C464.795 158.535 464.815 158.88 464.774 159.22C464.733 159.557 464.633 159.875 464.473 160.176C464.315 160.473 464.103 160.74 463.838 160.977C463.573 161.215 463.257 161.409 462.891 161.561C462.314 161.801 461.744 161.878 461.18 161.792C460.614 161.704 460.095 161.459 459.623 161.055C459.152 160.651 458.77 160.094 458.475 159.385C458.18 158.674 458.056 158.01 458.105 157.393C458.152 156.773 458.345 156.233 458.682 155.773C459.018 155.31 459.474 154.959 460.048 154.721C460.402 154.574 460.752 154.488 461.1 154.463C461.449 154.434 461.787 154.467 462.113 154.56C462.438 154.651 462.739 154.803 463.016 155.016C463.291 155.227 463.532 155.5 463.737 155.834Z" fill="#09180D" fill-opacity="0.7"/>
</g>
<g clip-path="url(#clip11_832_39)">
<path fill-rule="evenodd" clip-rule="evenodd" d="M476.19 148.742L480.356 150.462L482.076 146.296L483.465 146.869L481.171 152.424L475.617 150.13L476.19 148.742Z" fill="#09180D" fill-opacity="0.6"/>
</g>
</g>
</g>
<path fill-rule="evenodd" clip-rule="evenodd" d="M157.886 386.229C150.093 369.312 157.489 349.279 174.406 341.486C191.323 333.692 211.356 341.088 219.15 358.005C226.943 374.922 219.547 394.955 202.63 402.749C185.713 410.543 165.68 403.146 157.886 386.229ZM181.059 349.962C180.635 349.72 180.159 349.582 179.672 349.561C179.184 349.54 178.698 349.635 178.255 349.839C177.811 350.044 177.423 350.351 177.122 350.736C176.821 351.12 176.617 351.571 176.526 352.051L171.582 377.958C171.463 378.586 171.542 379.235 171.81 379.815C172.077 380.395 172.519 380.877 173.073 381.194L195.977 394.272C196.401 394.515 196.877 394.652 197.364 394.674C197.852 394.695 198.338 394.599 198.781 394.395C199.225 394.191 199.613 393.884 199.914 393.499C200.215 393.114 200.419 392.663 200.51 392.184L205.454 366.276C205.573 365.649 205.494 365 205.226 364.42C204.959 363.84 204.517 363.357 203.963 363.041L181.059 349.962V349.962ZM189.702 374.688L182.094 375.077L187.334 369.547L194.942 369.158L189.702 374.688ZM193.307 379.795L197.47 375.406L195.29 386.818L185.201 381.059L191.241 380.747C192.027 380.706 192.766 380.365 193.307 379.795V379.795ZM181.744 357.414L179.566 368.828L183.729 364.44C184.27 363.869 185.009 363.528 185.795 363.488L191.835 363.176L181.744 357.414Z" fill="black"/>
<path fill-rule="evenodd" clip-rule="evenodd" d="M157.886 386.229C150.093 369.312 157.489 349.279 174.406 341.486C191.323 333.692 211.356 341.088 219.15 358.005C226.943 374.922 219.547 394.955 202.63 402.749C185.713 410.543 165.68 403.146 157.886 386.229ZM181.059 349.962C180.635 349.72 180.159 349.582 179.672 349.561C179.184 349.54 178.698 349.635 178.255 349.839C177.811 350.044 177.423 350.351 177.122 350.736C176.821 351.12 176.617 351.571 176.526 352.051L171.582 377.958C171.463 378.586 171.542 379.235 171.81 379.815C172.077 380.395 172.519 380.877 173.073 381.194L195.977 394.272C196.401 394.515 196.877 394.652 197.364 394.674C197.852 394.695 198.338 394.599 198.781 394.395C199.225 394.191 199.613 393.884 199.914 393.499C200.215 393.114 200.419 392.663 200.51 392.184L205.454 366.276C205.573 365.649 205.494 365 205.226 364.42C204.959 363.84 204.517 363.357 203.963 363.041L181.059 349.962V349.962ZM189.702 374.688L182.094 375.077L187.334 369.547L194.942 369.158L189.702 374.688ZM193.307 379.795L197.47 375.406L195.29 386.818L185.201 381.059L191.241 380.747C192.027 380.706 192.766 380.365 193.307 379.795V379.795ZM181.744 357.414L179.566 368.828L183.729 364.44C184.27 363.869 185.009 363.528 185.795 363.488L191.835 363.176L181.744 357.414Z" fill="url(#paint7_linear_832_39)"/>
<path fill-rule="evenodd" clip-rule="evenodd" d="M476.315 331.693C473.844 336.393 465.316 341.851 457.336 344.828L455.271 350.868C454.933 351.854 453.655 352.105 452.969 351.32L449.144 346.938C447.721 347.094 446.432 347.086 445.339 346.881C437.093 345.423 428.416 326.159 431.421 318.496C434.426 310.833 454.499 300.991 462.397 303.307C470.296 305.624 480.212 324.281 476.315 331.693ZM447.488 330.549C448.64 329.984 449.116 328.593 448.551 327.441C447.986 326.289 446.595 325.813 445.443 326.378C444.291 326.943 443.815 328.334 444.38 329.486C444.945 330.638 446.336 331.113 447.488 330.549ZM455.85 323.862C456.414 325.013 455.939 326.405 454.787 326.97C453.635 327.534 452.244 327.059 451.679 325.907C451.114 324.755 451.59 323.363 452.742 322.799C453.893 322.234 455.285 322.71 455.85 323.862ZM462.086 323.392C463.237 322.827 463.713 321.435 463.149 320.284C462.584 319.132 461.192 318.656 460.041 319.221C458.889 319.785 458.413 321.177 458.978 322.329C459.542 323.48 460.934 323.956 462.086 323.392Z" fill="#191A1D"/>
<path fill-rule="evenodd" clip-rule="evenodd" d="M476.315 331.693C473.844 336.393 465.316 341.851 457.336 344.828L455.271 350.868C454.933 351.854 453.655 352.105 452.969 351.32L449.144 346.938C447.721 347.094 446.432 347.086 445.339 346.881C437.093 345.423 428.416 326.159 431.421 318.496C434.426 310.833 454.499 300.991 462.397 303.307C470.296 305.624 480.212 324.281 476.315 331.693ZM447.488 330.549C448.64 329.984 449.116 328.593 448.551 327.441C447.986 326.289 446.595 325.813 445.443 326.378C444.291 326.943 443.815 328.334 444.38 329.486C444.945 330.638 446.336 331.113 447.488 330.549ZM455.85 323.862C456.414 325.013 455.939 326.405 454.787 326.97C453.635 327.534 452.244 327.059 451.679 325.907C451.114 324.755 451.59 323.363 452.742 322.799C453.893 322.234 455.285 322.71 455.85 323.862ZM462.086 323.392C463.237 322.827 463.713 321.435 463.149 320.284C462.584 319.132 461.192 318.656 460.041 319.221C458.889 319.785 458.413 321.177 458.978 322.329C459.542 323.48 460.934 323.956 462.086 323.392Z" fill="url(#paint8_linear_832_39)"/>
<path d="M216.883 70.424L202.227 77.0809C201.365 71.4878 203.46 67.8315 207.674 65.9174C211.348 64.2485 214.837 64.8174 217.026 65.2255L217.123 56.6174C212.919 55.5219 208.477 55.8868 204.035 57.9046C195.067 61.978 190.796 70.6038 193.094 81.2297L188.755 83.2004L189.139 88.5103L194.536 86.0587C194.805 86.7626 195.105 87.4778 195.435 88.2044C195.746 88.8894 196.078 89.565 196.422 90.2104L192.706 91.8982L193.137 97.3119L199.157 94.5775C205.638 103.278 214.906 105.654 223.873 101.581C228.15 99.6384 231.498 96.59 233.376 92.7317L226.789 87.1598C225.782 88.9691 223.887 91.9084 220.234 93.5679C216.02 95.482 211.925 94.7375 208.29 90.4287L216.718 86.6005L216.869 80.9228L205.452 86.1088C205.118 85.4841 204.786 84.8085 204.465 84.1027C204.126 83.3554 203.826 82.6402 203.566 81.957L216.893 75.9036L216.883 70.424Z" fill="white"/>
<path d="M216.883 70.424L202.227 77.0809C201.365 71.4878 203.46 67.8315 207.674 65.9174C211.348 64.2485 214.837 64.8174 217.026 65.2255L217.123 56.6174C212.919 55.5219 208.477 55.8868 204.035 57.9046C195.067 61.978 190.796 70.6038 193.094 81.2297L188.755 83.2004L189.139 88.5103L194.536 86.0587C194.805 86.7626 195.105 87.4778 195.435 88.2044C195.746 88.8894 196.078 89.565 196.422 90.2104L192.706 91.8982L193.137 97.3119L199.157 94.5775C205.638 103.278 214.906 105.654 223.873 101.581C228.15 99.6384 231.498 96.59 233.376 92.7317L226.789 87.1598C225.782 88.9691 223.887 91.9084 220.234 93.5679C216.02 95.482 211.925 94.7375 208.29 90.4287L216.718 86.6005L216.869 80.9228L205.452 86.1088C205.118 85.4841 204.786 84.8085 204.465 84.1027C204.126 83.3554 203.826 82.6402 203.566 81.957L216.893 75.9036L216.883 70.424Z" fill="url(#paint9_linear_832_39)"/>
</g>
<defs>
<linearGradient id="paint0_linear_832_39" x1="261.834" y1="417" x2="605.749" y2="383.895" gradientUnits="userSpaceOnUse">
<stop offset="0.0001" stop-color="#134929"/>
<stop offset="0.258333" stop-color="#4C832A"/>
<stop offset="0.552951" stop-color="#A9A550"/>
<stop offset="0.773212" stop-color="#F5D45B"/>
<stop offset="1" stop-color="#F0EC8F"/>
</linearGradient>
<linearGradient id="paint1_linear_832_39" x1="62.5879" y1="224.543" x2="469.27" y2="83.9882" gradientUnits="userSpaceOnUse">
<stop offset="0.0001" stop-color="#134929"/>
<stop offset="0.258333" stop-color="#4C832A"/>
<stop offset="0.552951" stop-color="#A9A550"/>
<stop offset="0.773212" stop-color="#F5D45B"/>
<stop offset="1" stop-color="#F0EC8F"/>
</linearGradient>
<linearGradient id="paint2_linear_832_39" x1="59.1541" y1="476.93" x2="416.766" y2="451.029" gradientUnits="userSpaceOnUse">
<stop offset="0.0001" stop-color="#134929"/>
<stop offset="0.258333" stop-color="#4C832A"/>
<stop offset="0.552951" stop-color="#A9A550"/>
<stop offset="0.773212" stop-color="#F5D45B"/>
<stop offset="1" stop-color="#F0EC8F"/>
</linearGradient>
<linearGradient id="paint3_linear_832_39" x1="128.276" y1="312.935" x2="311.243" y2="387.174" gradientUnits="userSpaceOnUse">
<stop offset="0.0001" stop-color="#134929"/>
<stop offset="0.258333" stop-color="#4C832A"/>
<stop offset="0.552951" stop-color="#A9A550"/>
<stop offset="0.773212" stop-color="#F5D45B"/>
<stop offset="1" stop-color="#F0EC8F"/>
</linearGradient>
<linearGradient id="paint4_linear_832_39" x1="275.151" y1="265.032" x2="431.536" y2="320.152" gradientUnits="userSpaceOnUse">
<stop offset="0.0001" stop-color="#134929"/>
<stop offset="0.258333" stop-color="#4C832A"/>
<stop offset="0.552951" stop-color="#A9A550"/>
<stop offset="0.773212" stop-color="#F5D45B"/>
<stop offset="1" stop-color="#F0EC8F"/>
</linearGradient>
<linearGradient id="paint5_linear_832_39" x1="375.242" y1="328.119" x2="514.845" y2="187.243" gradientUnits="userSpaceOnUse">
<stop offset="0.0001" stop-color="#134929"/>
<stop offset="0.258333" stop-color="#4C832A"/>
<stop offset="0.552951" stop-color="#A9A550"/>
<stop offset="0.773212" stop-color="#F5D45B"/>
<stop offset="1" stop-color="#F0EC8F"/>
</linearGradient>
<linearGradient id="paint6_linear_832_39" x1="406.051" y1="235.612" x2="642.694" y2="261.135" gradientUnits="userSpaceOnUse">
<stop offset="0.0001" stop-color="#134929"/>
<stop offset="0.258333" stop-color="#4C832A"/>
<stop offset="0.552951" stop-color="#A9A550"/>
<stop offset="0.773212" stop-color="#F5D45B"/>
<stop offset="1" stop-color="#F0EC8F"/>
</linearGradient>
<linearGradient id="paint7_linear_832_39" x1="176.479" y1="414.797" x2="449.733" y2="257.728" gradientUnits="userSpaceOnUse">
<stop offset="0.0001" stop-color="#134929"/>
<stop offset="0.258333" stop-color="#4C832A"/>
<stop offset="0.552951" stop-color="#A9A550"/>
<stop offset="0.773212" stop-color="#F5D45B"/>
<stop offset="1" stop-color="#F0EC8F"/>
</linearGradient>
<linearGradient id="paint8_linear_832_39" x1="434.204" y1="351.784" x2="564.807" y2="264.018" gradientUnits="userSpaceOnUse">
<stop offset="0.0001" stop-color="#134929"/>
<stop offset="0.258333" stop-color="#4C832A"/>
<stop offset="0.552951" stop-color="#A9A550"/>
<stop offset="0.773212" stop-color="#F5D45B"/>
<stop offset="1" stop-color="#F0EC8F"/>
</linearGradient>
<linearGradient id="paint9_linear_832_39" x1="202.576" y1="111.255" x2="325.579" y2="71.5385" gradientUnits="userSpaceOnUse">
<stop offset="0.0001" stop-color="#134929"/>
<stop offset="0.258333" stop-color="#4C832A"/>
<stop offset="0.552951" stop-color="#A9A550"/>
<stop offset="0.773212" stop-color="#F5D45B"/>
<stop offset="1" stop-color="#F0EC8F"/>
</linearGradient>
<clipPath id="clip0_832_39">
<rect width="831" height="861" fill="white"/>
</clipPath>
<clipPath id="clip1_832_39">
<rect x="-32.6162" y="336.975" width="253.54" height="48.1585" rx="24.0792" transform="rotate(-22.5651 -32.6162 336.975)" fill="white"/>
</clipPath>
<clipPath id="clip2_832_39">
<rect width="155.807" height="13.456" fill="white" transform="translate(-18.1104 349.736) rotate(-22.5651)"/>
</clipPath>
<clipPath id="clip3_832_39">
<rect x="122.372" y="281.773" width="80.7363" height="31.1614" rx="15.5807" transform="rotate(-22.5651 122.372 281.773)" fill="white"/>
</clipPath>
<clipPath id="clip4_832_39">
<rect width="46.742" height="22.6628" fill="white" transform="translate(127.927 284.066) rotate(-22.5651)"/>
</clipPath>
<clipPath id="clip5_832_39">
<rect width="22.6628" height="5.3116" fill="white" transform="translate(177.035 273.055) rotate(-22.5651)"/>
</clipPath>
<clipPath id="clip6_832_39">
<rect width="16.9484" height="45.2938" fill="white" transform="translate(222.23 234.174) rotate(-22.5651)"/>
</clipPath>
<clipPath id="clip7_832_39">
<rect x="256.402" y="216.874" width="256.373" height="48.1585" rx="24.0792" transform="rotate(-22.5651 256.402 216.874)" fill="white"/>
</clipPath>
<clipPath id="clip8_832_39">
<rect width="155.807" height="13.456" fill="white" transform="translate(270.908 229.636) rotate(-22.5651)"/>
</clipPath>
<clipPath id="clip9_832_39">
<rect x="411.391" y="161.673" width="83.5691" height="31.1614" rx="15.5807" transform="rotate(-22.5651 411.391 161.673)" fill="white"/>
</clipPath>
<clipPath id="clip10_832_39">
<rect width="49.5749" height="22.6628" fill="white" transform="translate(416.945 163.966) rotate(-22.5651)"/>
</clipPath>
<clipPath id="clip11_832_39">
<rect width="22.6628" height="5.3116" fill="white" transform="translate(468.67 151.867) rotate(-22.5651)"/>
</clipPath>
</defs>
</svg>
